<svg width="14" height="14" viewBox="0 0 14 14" fill="none" xmlns="http://www.w3.org/2000/svg">
<path d="M13.8664 11.7145L7.85354 1.29995C7.67539 0.991374 7.35632 0.807159 7 0.807159C6.64368 0.807159 6.32461 0.991374 6.14646 1.29995L0.133629 11.7145C-0.044543 12.0231 -0.044543 12.3915 0.133629 12.7001C0.311773 13.0086 0.630848 13.1928 0.987164 13.1928H13.0128C13.3692 13.1928 13.6882 13.0086 13.8664 12.7001C14.0445 12.3915 14.0445 12.0231 13.8664 11.7145ZM13.1551 12.2894C13.1374 12.3201 13.0953 12.3715 13.0129 12.3715H0.987164C0.904641 12.3715 0.862586 12.3201 0.844922 12.2894C0.82723 12.2588 0.80366 12.1966 0.844922 12.1252L6.85773 1.7106C6.89899 1.63915 6.96456 1.62846 6.99997 1.62846C7.03541 1.62846 7.10098 1.63912 7.14221 1.7106L13.1551 12.1252C13.1964 12.1966 13.1728 12.2588 13.1551 12.2894Z" fill="#E42238"/>
<path d="M7.41117 4.54166H6.58984V8.92204H7.41117V4.54166Z" fill="#E42238"/>
<path d="M7.0002 10.8385C7.30261 10.8385 7.54776 10.5933 7.54776 10.2909C7.54776 9.98853 7.30261 9.74338 7.0002 9.74338C6.69779 9.74338 6.45264 9.98853 6.45264 10.2909C6.45264 10.5933 6.69779 10.8385 7.0002 10.8385Z" fill="#E42238"/>
</svg>
