<svg width="14" height="14" viewBox="0 0 14 14" fill="none" xmlns="http://www.w3.org/2000/svg">
<path d="M5.01217 5.98528C5.18294 5.81452 5.46007 5.81444 5.63092 5.98528L6.44952 6.80391C6.94981 6.59372 7.78479 5.76057 7.99633 5.25711L7.1777 4.43848C7.00685 4.26763 7.00685 3.9906 7.1777 3.81976L8.87922 2.11824C9.04993 1.9475 9.32711 1.94739 9.49793 2.11824L10.426 3.04633C10.8862 3.50653 10.9425 4.27255 10.5845 5.20327C9.55314 7.88491 5.6879 10.6827 4.23872 9.23361L3.31063 8.30552C3.13978 8.13467 3.13978 7.85765 3.31063 7.6868L5.01217 5.98528ZM4.85749 8.61489C5.04969 8.80704 5.51875 8.79198 6.08161 8.57546C7.53593 8.01614 9.20688 6.34776 9.7679 4.88916C9.98441 4.32628 9.99951 3.85725 9.80733 3.66504L9.18862 3.04633L8.10584 4.1291L8.72453 4.74782C8.88947 4.91273 9.019 5.23014 8.69929 5.80558C8.23023 6.64988 6.62748 8.21928 5.94026 7.53212L5.32155 6.9134L4.23877 7.99618L4.85749 8.61489Z" fill="#34B44A"/>
<path d="M3.4061 0H10.4062C11.733 0 12.8125 1.07947 12.8125 2.40629V9.4064C12.8125 10.7332 11.733 11.8127 10.4062 11.8127H8.46639L7.28132 13.7878C7.11206 14.0699 6.7013 14.0716 6.53102 13.7878L5.34593 11.8127H3.4061C2.07928 11.8127 0.999817 10.7332 0.999817 9.4064V2.40629C0.999817 1.07947 2.07926 0 3.4061 0ZM1.87483 9.4064C1.87483 10.2508 2.56177 10.9377 3.4061 10.9377H5.59364C5.74731 10.9377 5.88972 11.0183 5.9688 11.1501L6.90616 12.7124L7.84352 11.1501C7.9226 11.0183 8.065 10.9377 8.21868 10.9377H10.4062C11.2505 10.9377 11.9375 10.2508 11.9375 9.4064V2.40629C11.9375 1.56193 11.2505 0.875014 10.4062 0.875014H3.4061C2.56177 0.875014 1.87483 1.56193 1.87483 2.40629V9.4064Z" fill="#34B44A"/>
</svg>
