<svg width="93" height="93" viewBox="0 0 93 93" fill="none" xmlns="http://www.w3.org/2000/svg">
<path d="M91.2918 82.862H81.8531L79.5615 61.0943L82.0976 64.8976L82.7258 68.0433C83.0291 69.5597 83.9822 70.8501 85.3423 71.5882C86.1129 72.006 86.9593 72.2164 87.8103 72.2164C88.4617 72.2164 89.1162 72.0926 89.7398 71.8435C91.0829 71.3066 92.1474 70.2235 92.6627 68.8711C93.1764 67.5188 93.1006 66.0024 92.4538 64.7073L91.1293 62.0567C91.1246 62.0459 91.1154 62.0397 91.1092 62.0304C91.1061 62.0227 91.1061 62.0149 91.103 62.0072L81.8191 44.9867C81.6473 44.6711 81.3688 44.425 81.0361 44.2904L76.8429 42.6131C79.9902 40.057 82.0079 36.1608 82.0079 31.8005C82.0079 29.4687 81.3936 27.1724 80.264 25.1176L79.4656 17.1304C81.9568 16.0751 83.5552 14.0032 83.5552 11.6853C83.5552 8.35397 80.2486 5.62914 76.1234 5.50071C74.4786 2.64591 71.4288 0.854118 68.082 0.854118C64.7351 0.854118 61.6854 2.64591 60.0406 5.50071C55.9154 5.62914 52.6088 8.35397 52.6088 11.6853C52.6088 14.0032 54.2072 16.0751 56.6984 17.1304L55.9 25.1176C54.7704 27.1724 54.1561 29.4687 54.1561 31.8005C54.1561 36.1608 56.1738 40.057 59.3226 42.6116L55.1294 44.2889C54.8818 44.3879 54.6637 44.5504 54.4965 44.7593L49.2743 51.2874L42.9644 46.24L41.2793 43.4317C40.9931 42.9535 40.6279 42.5481 40.2334 42.1783V37.9897C40.2334 35.9751 38.9352 34.2731 37.1387 33.6325V27.1585H38.686C41.2453 27.1585 43.328 25.0758 43.328 22.5166V13.2327C43.328 10.6734 41.2453 8.59071 38.686 8.59071H32.4968C29.9375 8.59071 27.8548 10.6734 27.8548 13.2327V22.5166C27.8548 25.0758 29.9375 27.1585 32.4968 27.1585H34.0441V33.6325C32.2477 34.2731 30.9495 35.9751 30.9495 37.9897V44.179C30.9495 44.1806 30.9495 44.1837 30.9495 44.1852C30.5626 45.1059 30.3893 46.1101 30.5147 47.1375C30.7359 48.9277 31.7494 50.4874 33.2952 51.4158L36.2227 53.172L46.5093 62.1728C48.2376 63.683 50.7706 63.7155 52.5376 62.244L56.8624 58.6387L54.3109 82.862H27.2606L29.0757 79.232C31.9722 78.1132 34.041 75.3172 34.041 72.0307V68.6514C35.8374 68.0108 37.1356 66.3088 37.1356 64.2941C37.1356 61.7349 35.0529 59.6522 32.4937 59.6522H4.64195C2.08269 59.6522 0 61.7349 0 64.2941C0 66.3088 1.2982 68.0108 3.09464 68.6514V72.0307C3.09464 75.3172 5.1634 78.1132 8.05998 79.232L9.87498 82.862H1.54732C0.693199 82.862 0 83.5552 0 84.4093V90.5985C0 91.4527 0.693199 92.1459 1.54732 92.1459H91.2918C92.1459 92.1459 92.8391 91.4527 92.8391 90.5985V84.4093C92.8391 83.5552 92.1459 82.862 91.2918 82.862ZM34.041 24.0639H32.4937C31.6411 24.0639 30.9464 23.3691 30.9464 22.5166V13.2327C30.9464 12.3801 31.6411 11.6853 32.4937 11.6853H34.041V24.0639ZM89.6856 66.089C89.9502 66.6182 89.9812 67.2155 89.7707 67.7694C89.5603 68.3218 89.141 68.7489 88.5917 68.9686C88.0145 69.1992 87.3662 69.162 86.8185 68.8649C86.2707 68.5678 85.8839 68.0464 85.7616 67.4352L85.3624 65.4376L88.9166 64.5495L89.6856 66.089ZM79.3697 46.9565L87.4281 61.7302L84.2375 62.5271L78.7972 54.3666L76.5505 45.8285L79.3697 46.9565ZM75.9733 56.5576L78.743 82.862H57.4225L60.1907 56.5576H75.9733ZM60.8065 53.4629L63.0872 44.7902C63.1491 44.8134 63.2126 44.8304 63.2745 44.8521C63.5855 44.9666 63.898 45.0765 64.2183 45.1693C64.3406 45.2049 64.4644 45.2327 64.5866 45.2637C64.8821 45.3411 65.1777 45.4153 65.4794 45.4726C65.631 45.502 65.7842 45.519 65.9359 45.5422C66.2159 45.5855 66.4944 45.6319 66.7792 45.6598C66.9788 45.6784 67.1799 45.6799 67.3795 45.6907C67.6147 45.7031 67.8453 45.7263 68.082 45.7263C68.3187 45.7263 68.5493 45.7031 68.7845 45.6907C68.9856 45.6799 69.1852 45.6784 69.3848 45.6598C69.6695 45.6335 69.9481 45.5871 70.2281 45.5422C70.3798 45.519 70.5329 45.502 70.6846 45.4726C70.9863 45.4153 71.2818 45.3395 71.5774 45.2637C71.6996 45.2312 71.8234 45.2049 71.9456 45.1693C72.2659 45.0765 72.58 44.9681 72.8895 44.8521C72.9514 44.8289 73.0148 44.8134 73.0767 44.7902L75.359 53.4629H60.8065ZM55.7034 11.6853C55.7034 10.008 57.8295 8.59071 60.3454 8.59071C60.4351 8.59071 60.5202 8.60154 60.6069 8.61082L60.856 8.63403C61.5074 8.67271 62.1326 8.3091 62.3956 7.701C63.3735 5.4218 65.6063 3.94875 68.082 3.94875C70.5577 3.94875 72.7905 5.4218 73.7699 7.701C74.0314 8.3091 74.6658 8.68509 75.3095 8.63403L75.5586 8.61082C75.6437 8.60154 75.7288 8.59071 75.8186 8.59071C78.3345 8.59071 80.4605 10.008 80.4605 11.6853C80.4605 12.9216 79.2103 14.1038 77.4201 14.5618C76.6789 14.7506 76.1868 15.4531 76.2627 16.2143L77.2034 25.6112H58.9606L59.8998 16.2159C59.9756 15.4546 59.4835 14.7521 58.7424 14.5634C56.9537 14.1038 55.7034 12.9216 55.7034 11.6853ZM57.2508 31.8005C57.2508 30.7514 57.407 29.7085 57.7072 28.7058H78.4552C78.7569 29.7085 78.9132 30.7514 78.9132 31.8005C78.9132 36.0958 76.3926 39.8047 72.7595 41.5548C72.4083 41.7234 72.0493 41.8735 71.6857 42.0019C71.6687 42.0081 71.6517 42.0143 71.6346 42.0205C69.3291 42.8267 66.8318 42.8267 64.5263 42.0205C64.5092 42.0143 64.4922 42.0081 64.4752 42.0019C64.1116 41.8735 63.7541 41.7234 63.4014 41.5548C59.7713 39.8047 57.2508 36.0958 57.2508 31.8005ZM37.1356 11.6853H38.6829C39.5355 11.6853 40.2303 12.3801 40.2303 13.2327V22.5166C40.2303 23.3691 39.5355 24.0639 38.6829 24.0639H37.1356V11.6853ZM35.5883 36.4424C36.4409 36.4424 37.1356 37.1372 37.1356 37.9897V40.679C37.1263 40.6774 37.1155 40.6774 37.1062 40.6759C37.0691 40.6712 37.0366 40.6542 36.9995 40.6496C36.9144 40.6388 36.8308 40.6542 36.7473 40.6465C36.478 40.6248 36.2119 40.6217 35.9426 40.6372C35.808 40.6449 35.675 40.6449 35.5434 40.662C35.2247 40.7022 34.9137 40.7765 34.6058 40.8693C34.4742 40.9095 34.3474 40.9513 34.2189 40.9993C34.1601 41.0209 34.0998 41.0349 34.0425 41.0581V37.9897H34.041C34.041 37.1372 34.7357 36.4424 35.5883 36.4424ZM34.8874 48.7622C34.1617 48.3274 33.6867 47.597 33.5845 46.7584C33.5165 46.2122 33.6294 45.6784 33.8708 45.2033C33.877 45.191 33.8878 45.1832 33.894 45.1708C33.9605 45.044 34.0271 44.9357 34.0951 44.8351C34.1787 44.719 34.2607 44.6014 34.3628 44.4993C34.5795 44.2811 34.8317 44.1156 35.0963 43.9871C35.1179 43.9763 35.1396 43.9624 35.1613 43.9516C35.4258 43.8324 35.7075 43.7581 35.9953 43.7287C36.0169 43.7272 36.037 43.7241 36.0587 43.7226C36.3388 43.6993 36.6219 43.7241 36.9004 43.7875C36.9298 43.7937 36.9592 43.7999 36.9871 43.8077C37.2764 43.885 37.5581 44.0042 37.8165 44.1806C37.8242 44.1852 37.8335 44.1883 37.8412 44.1929C38.1522 44.4096 38.423 44.6865 38.6257 45.0238L39.8311 47.0338L36.8973 49.9675L34.8874 48.7622ZM50.554 59.8657C49.966 60.3547 49.1196 60.3469 48.544 59.8425L39.3978 51.8398L41.8905 49.3471L48.5456 54.6714C49.2109 55.2052 50.1857 55.0984 50.7195 54.43L56.6535 47.0122L59.6104 45.83L57.4241 54.1407L50.554 59.8657ZM4.64195 65.8415C3.78938 65.8415 3.09464 65.1467 3.09464 64.2941C3.09464 63.4416 3.78938 62.7468 4.64195 62.7468H32.4937C33.3462 62.7468 34.041 63.4416 34.041 64.2941C34.041 65.1467 33.3462 65.8415 32.4937 65.8415H4.64195ZM6.18927 72.0307V68.9361H30.9464V72.0307C30.9464 74.59 28.8637 76.6727 26.3044 76.6727H10.8312C8.27196 76.6727 6.18927 74.59 6.18927 72.0307ZM25.3482 79.7673L23.8008 82.862H20.1151V79.7673H25.3482ZM17.0205 79.7673V82.862H13.3348L11.7875 79.7673H17.0205ZM89.7444 89.0512H3.09464V85.9566H12.3785H24.7571H55.7034H80.4605H89.7444V89.0512Z" fill="#D2D2D2"/>
<path d="M72.7238 62.7468H63.4399C62.5858 62.7468 61.8926 63.44 61.8926 64.2941V68.9361C61.8926 72.3495 64.6685 75.1254 68.0819 75.1254C71.4952 75.1254 74.2711 72.3495 74.2711 68.9361V64.2941C74.2711 63.44 73.5779 62.7468 72.7238 62.7468ZM71.1765 68.9361C71.1765 70.6428 69.7885 72.0307 68.0819 72.0307C66.3752 72.0307 64.9872 70.6428 64.9872 68.9361V65.8415H71.1765V68.9361Z" fill="#D2D2D2"/>
<path d="M20.1151 47.2737H17.0205V55.0102H20.1151V47.2737Z" fill="#D2D2D2"/>
<path d="M27.8515 50.3683H24.7568V56.5576H27.8515V50.3683Z" fill="#D2D2D2"/>
<path d="M12.3788 50.3683H9.28418V56.5576H12.3788V50.3683Z" fill="#D2D2D2"/>
<path d="M20.1151 41.0844H17.0205V44.179H20.1151V41.0844Z" fill="#D2D2D2"/>
<path d="M12.3788 44.179H9.28418V47.2737H12.3788V44.179Z" fill="#D2D2D2"/>
<path d="M27.8515 44.179H24.7568V47.2737H27.8515V44.179Z" fill="#D2D2D2"/>
</svg>
