<svg width="17" height="17" viewBox="0 0 17 17" fill="none" xmlns="http://www.w3.org/2000/svg">
<path d="M11.0479 9.74126C12.6432 7.48857 12.1097 4.36926 9.85698 2.77435C7.60429 1.17945 4.48498 1.71261 2.89007 3.96567C1.29517 6.21836 1.82833 9.33729 4.0814 10.9322C5.68926 12.0705 7.81504 12.1582 9.51094 11.1567L13.1958 14.8194C13.5937 15.2383 14.2556 15.255 14.6745 14.8572C15.0933 14.4597 15.1101 13.7977 14.7126 13.3789C14.7 13.3655 14.6878 13.3533 14.6745 13.3408L11.0479 9.74126ZM6.96595 10.0827C5.18583 10.0831 3.7426 8.64102 3.74145 6.8609C3.74107 5.08077 5.18316 3.63755 6.96366 3.63678C8.7415 3.63602 10.184 5.07582 10.1874 6.85365C10.1904 8.63416 8.74912 10.0797 6.96823 10.0827C6.96747 10.0827 6.96709 10.0827 6.96595 10.0827Z" fill="#445548"/>
</svg>
