<svg width="21" height="21" viewBox="0 0 21 21" fill="none" xmlns="http://www.w3.org/2000/svg">
<path d="M10.0079 2.50573C9.99405 2.50573 9.98059 2.50565 9.96685 2.50565C7.96775 2.50565 6.09448 3.27855 4.68871 4.68432C3.27133 6.1017 2.49605 7.99093 2.50564 10.0039C2.50778 10.457 2.14229 10.826 1.68923 10.8281C1.68787 10.8281 1.6866 10.8281 1.68525 10.8281C1.23412 10.8281 0.867231 10.4634 0.865057 10.0117C0.853368 7.55747 1.79931 5.25354 3.52862 3.52419C5.24447 1.8083 7.52921 0.865021 9.96661 0.865021C9.98158 0.865021 9.99667 0.865062 10.0117 0.865103C10.4647 0.867277 10.8302 1.23629 10.8281 1.68931C10.8259 2.14102 10.4591 2.50573 10.0079 2.50573Z" fill="#34B44A"/>
<path d="M0.00187874 16.9219C0.0311623 16.1095 0.369543 15.3515 0.954632 14.7873C2.10024 13.6826 3.06005 13.0449 3.97527 12.7805C5.23651 12.4159 6.40447 12.7474 7.44688 13.7655C7.44844 13.767 7.45004 13.7686 7.4516 13.7701L8.56173 14.872C9.25125 14.4847 10.5916 13.6322 12.0577 12.1662L12.1656 12.0583C13.622 10.6019 14.4798 9.25393 14.8702 8.56158L13.7693 7.45248C13.7678 7.45092 13.7663 7.44936 13.7647 7.44776C12.7466 6.40539 12.4152 5.23734 12.7797 3.97619C13.0441 3.06101 13.6818 2.10116 14.7865 0.955547C15.3507 0.370458 16.1087 0.0320788 16.921 0.00279356C17.733 -0.0264506 18.5137 0.256312 19.1186 0.799359L19.1422 0.820524C19.1531 0.830326 19.1638 0.840457 19.1742 0.850834C20.3784 2.05497 21.0096 3.7408 20.9997 5.726C20.9829 9.09831 19.1294 12.955 16.0418 16.0426C16.0392 16.0452 16.0366 16.0477 16.0341 16.0502C15.4536 16.6299 14.7946 17.2034 14.0751 17.7551C13.7156 18.0308 13.2006 17.9628 12.9249 17.6033C12.6493 17.2437 12.7172 16.7288 13.0768 16.4532C13.7427 15.9426 14.3499 15.4141 14.8816 14.8824C14.8842 14.8799 14.8867 14.8773 14.8893 14.8748C17.6737 12.0873 19.3444 8.66482 19.3591 5.71776C19.3667 4.18886 18.9068 2.91273 18.0289 2.02577L18.0227 2.02011C17.4264 1.48494 16.5236 1.5175 15.9674 2.09427C13.8436 4.29673 13.9974 5.33652 14.9359 6.29883L16.4565 7.83089C16.6949 8.07116 16.7613 8.43324 16.6236 8.7425C16.585 8.82921 15.6512 10.8928 13.3254 13.2186L13.2174 13.3265C10.8919 15.652 8.82829 16.5858 8.74158 16.6244C8.43233 16.7622 8.07024 16.6958 7.82997 16.4573L6.2982 14.9369C5.33572 13.9984 4.29589 13.8444 2.09335 15.9683C1.51659 16.5245 1.48402 17.4272 2.01911 18.0234L2.02489 18.0298C2.90468 18.9005 4.16719 19.3601 5.67948 19.3601C5.69191 19.3601 5.70441 19.3601 5.71688 19.36C6.92566 19.354 8.3254 19.0226 9.76468 18.4018C10.1807 18.2223 10.6634 18.4141 10.8428 18.8301C11.0223 19.2461 10.8305 19.7288 10.4145 19.9082C8.75081 20.6259 7.17306 20.9934 5.72509 21.0006C5.70971 21.0007 5.69441 21.0007 5.67907 21.0007C3.71384 21.0007 2.04475 20.3699 0.84996 19.1751C0.839542 19.1647 0.829453 19.1541 0.819649 19.1431L0.798363 19.1194C0.255478 18.5146 -0.0274067 17.7341 0.00187874 16.9219Z" fill="#34B44A"/>
<path d="M5.84647 5.84674C6.72637 4.96678 7.57088 4.73328 7.97678 4.62102C8.41355 4.50023 8.8653 4.75633 8.98605 5.19303C9.1068 5.62968 8.85074 6.08155 8.41404 6.2023C8.08215 6.29409 7.58061 6.43281 7.00655 7.00682C6.45395 7.55943 6.30715 8.0583 6.20999 8.38844L6.19813 8.42859C6.09256 8.7853 5.76591 9.0163 5.4119 9.0163C5.3348 9.01634 5.25637 9.00535 5.17869 8.98234C4.74429 8.85376 4.49635 8.39734 4.62498 7.96294L4.63609 7.92529C4.76263 7.49536 4.99814 6.69506 5.84647 5.84674Z" fill="#34B44A"/>
</svg>
