<svg width="14" height="14" viewBox="0 0 14 14" fill="none" xmlns="http://www.w3.org/2000/svg">
<path d="M3.30218 5.59456C3.30218 6.87363 4.34273 7.91418 5.6218 7.91418C5.92333 7.91418 6.16761 8.15857 6.16761 8.45999C6.16761 8.76152 5.92333 9.0058 5.6218 9.0058C3.74085 9.0058 2.21057 7.47551 2.21057 5.59456C2.21057 3.71351 3.74085 2.18322 5.6218 2.18322C7.50285 2.18322 9.03314 3.71351 9.03314 5.59456C9.03314 5.89598 8.78875 6.14037 8.48733 6.14037C8.18591 6.14037 7.94153 5.89598 7.94153 5.59456C7.94153 4.3155 6.90087 3.27483 5.6218 3.27483C4.34273 3.27483 3.30218 4.3155 3.30218 5.59456ZM3.73103 10.4221C2.33041 8.88841 1.12088 7.56374 1.11896 5.58922C1.12184 3.10928 3.14185 1.09161 5.6218 1.09161C8.10185 1.09161 10.1218 3.10928 10.1246 5.58922C10.1251 5.89054 10.3693 6.13449 10.6704 6.13439H10.6711C10.9725 6.13407 11.2167 5.88936 11.2163 5.58794C11.2145 4.09493 10.6319 2.69164 9.57553 1.63646C8.51916 0.58116 7.11502 0 5.6218 0C4.12868 0 2.72454 0.58116 1.66807 1.63646C0.611815 2.69164 0.0290527 4.09493 0.0273438 5.58912C0.0284119 6.67677 0.330474 7.69725 0.950941 8.70886C1.4881 9.58482 2.186 10.3491 2.92492 11.1583C3.64932 11.9517 4.39849 12.772 4.99674 13.7185C5.10056 13.8828 5.27755 13.9727 5.45859 13.9727C5.55835 13.9727 5.65918 13.9455 5.74976 13.8882C6.0045 13.7272 6.08055 13.3901 5.91948 13.1352C5.26964 12.1072 4.48746 11.2505 3.73103 10.4221ZM13.857 10.684C13.7493 10.8018 13.6019 10.8615 13.4541 10.8615C13.3225 10.8615 13.1906 10.8143 13.0859 10.7186L13.0175 10.6561V12.4622C13.0175 13.3102 12.3282 14 11.4809 14H8.41374C7.56651 14 6.87715 13.3102 6.87715 12.4622V10.6811L6.83614 10.7186C6.61365 10.9221 6.26844 10.9066 6.06496 10.6841C5.86159 10.4616 5.87708 10.1163 6.09957 9.91294L8.91671 7.3373C9.51208 6.79309 10.4099 6.79309 11.0052 7.3373L12.8102 8.98764C12.8302 9.00345 12.849 9.02064 12.8665 9.03901L13.8225 9.91294C14.0449 10.1163 14.0604 10.4616 13.857 10.684ZM11.9259 9.65809L10.2686 8.14297C10.0932 7.98265 9.82878 7.98265 9.65339 8.14297L7.96876 9.68298V12.4622C7.96876 12.7082 8.1684 12.9084 8.41385 12.9084H11.4809C11.7263 12.9084 11.9259 12.7082 11.9259 12.4622V9.65809Z" fill="#34B44A"/>
</svg>
