<svg width="10" height="14" viewBox="0 0 10 14" fill="none" xmlns="http://www.w3.org/2000/svg">
<path d="M6.34855 7.00296L1.11119 1.76537C0.966983 1.6215 0.88765 1.42914 0.88765 1.22403C0.88765 1.01881 0.966983 0.826569 1.11119 0.682472L1.57012 0.223772C1.7141 0.0794472 1.90658 0 2.11168 0C2.31679 0 2.50903 0.0794472 2.65313 0.223772L8.88904 6.45958C9.0337 6.60413 9.11292 6.79728 9.11236 7.00262C9.11292 7.20886 9.03382 7.40179 8.88904 7.54646L2.65893 13.7762C2.51483 13.9206 2.32259 14 2.11737 14C1.91227 14 1.72002 13.9206 1.57581 13.7762L1.117 13.3175C0.818447 13.019 0.818447 12.533 1.117 12.2345L6.34855 7.00296Z" fill="#445548"/>
</svg>
