<svg width="14" height="14" viewBox="0 0 14 14" fill="none" xmlns="http://www.w3.org/2000/svg">
<path d="M2.0378 13.1635H1.0458L1.74727 12.4621C2.12549 12.0838 2.36167 11.5919 2.42517 11.0583C1.43821 10.4106 0.716508 9.55844 0.330179 8.5812C-0.0558761 7.60471 -0.10439 6.52977 0.189898 5.47255C0.542998 4.20399 1.37118 3.04774 2.52184 2.21676C3.77224 1.31379 5.32885 0.836487 7.0234 0.836487C9.15809 0.836487 10.9574 1.4498 12.2267 2.61007C13.3702 3.65538 14 5.06534 14 6.58028C14 7.31629 13.8501 8.03243 13.5546 8.70883C13.2487 9.40876 12.8009 10.032 12.2235 10.5611C10.9524 11.726 9.15425 12.3417 7.02337 12.3417C6.23233 12.3417 5.40689 12.2361 4.66992 12.0423C3.97235 12.7579 3.02709 13.1635 2.0378 13.1635ZM7.0234 1.65829C3.62555 1.65829 1.54061 3.68466 0.981594 5.69293C0.45334 7.59074 1.23205 9.384 3.06467 10.4899L3.26944 10.6135L3.26314 10.8526C3.25064 11.3257 3.13784 11.7815 2.93592 12.1935C3.42761 12.0272 3.87376 11.7256 4.22314 11.3128L4.39687 11.1075L4.6545 11.1846C5.37749 11.4008 6.21877 11.5199 7.0234 11.5199C11.2522 11.5199 13.1782 8.95937 13.1782 6.58028C13.1782 5.29893 12.6434 4.10436 11.6722 3.21664C10.557 2.19717 8.9494 1.65829 7.0234 1.65829Z" fill="#34B44A"/>
</svg>
