<svg width="14" height="14" viewBox="0 0 14 14" fill="none" xmlns="http://www.w3.org/2000/svg">
<path d="M7.875 2.625C7.875 1.17513 8.85413 0 10.0625 0C11.2709 0 12.25 1.17513 12.25 2.625C12.25 3.87713 11.5185 4.92013 10.5411 5.18262L11.3663 12.5396C11.3724 12.5878 11.375 12.6376 11.375 12.6875C11.375 13.412 10.787 14 10.0625 14C9.338 14 8.75 13.412 8.75 12.6875C8.75 12.6455 8.75175 12.6035 8.75612 12.5624L9.45788 5.13538C8.54612 4.8195 7.875 3.82113 7.875 2.625Z" fill="#34B44A"/>
<path d="M2.1875 0C2.429 0 2.625 0.196 2.625 0.4375V2.625C2.625 2.8665 2.821 3.0625 3.0625 3.0625C3.304 3.0625 3.5 2.8665 3.5 2.625V0.4375C3.5 0.196 3.696 0 3.9375 0C4.179 0 4.375 0.196 4.375 0.4375V2.625C4.375 2.8665 4.571 3.0625 4.8125 3.0625C5.054 3.0625 5.25 2.8665 5.25 2.625V0.4375C5.25 0.196 5.446 0 5.6875 0C5.929 0 6.125 0.196 6.125 0.4375V3.0625C6.125 4.10288 5.3935 4.9735 4.41787 5.19312L5.24213 12.5396C5.24738 12.5878 5.25 12.6376 5.25 12.6875C5.25 13.412 4.662 14 3.9375 14C3.213 14 2.625 13.412 2.625 12.6875C2.625 12.6455 2.62675 12.6035 2.63112 12.5624L3.33113 5.15375C2.42113 4.88862 1.75 4.0565 1.75 3.0625V0.4375C1.75 0.196 1.946 0 2.1875 0Z" fill="#34B44A"/>
</svg>
